<?xml version="1.0" encoding="utf-8"?>
<!-- Generator: Adobe Illustrator 23.0.6, SVG Export Plug-In . SVG Version: 6.00 Build 0)  -->
<svg version="1.1" id="_x2014_ÎÓÈ_x5F_1" xmlns="http://www.w3.org/2000/svg" xmlns:xlink="http://www.w3.org/1999/xlink"
	 x="0px" y="0px" viewBox="0 0 759.24 759.24" style="enable-background:new 0 0 759.24 759.24;" xml:space="preserve">
<style type="text/css">
	.st0{fill:#2D426C;}
	.st1{fill:#4461A3;}
	.st2{fill:#47A0D9;}
	.st3{font-family:'Exo-ExtraBoldItalic';}
	.st4{font-size:124.4209px;}
</style>
<g>
	<g>
		<path class="st0" d="M359.53,328.16l-30.71,64.68c-6.92,14.47-21.62,23.04-37.06,23.04c-3.17,0-6.48-0.42-9.66-1.12
			c-0.07,0-0.07-0.07-0.14-0.07c-8.36-6.32-16.44-17.77-17.52-28.09c-2.09-19.94,12.19-36.24,29.63-44.45
			C314.26,332.59,337.76,332.72,359.53,328.16z"/>
		<path class="st1" d="M420.73,271.77c-4.18,16.93-13.99,31.74-27.97,42.34c-9.94,7.58-21.33,11.52-33.23,14.04
			c-21.77,4.57-45.27,4.43-65.45,13.98c-17.44,8.22-31.72,24.51-29.63,44.45c1.08,10.32,9.16,21.77,17.52,28.09
			c-2.45-0.56-4.91-1.41-7.28-2.46c-20.4-9.2-29.34-32.79-19.9-52.74l25.88-54.42c14.92-9.13,40.37-33.91,94.94-33.28
			C390.68,271.91,405.74,271.84,420.73,271.77z"/>
		<path class="st2" d="M490.22,249.65c-12.69,13.63-30.57,21.63-49.45,22.05c-6.7,0-13.33,0.08-20.03,0.08
			c-14.99,0.07-30.06,0.14-45.13,0c-54.57-0.63-80.01,24.15-94.94,33.28l35.25-74.29c0.07-0.14,0.14-0.28,0.21-0.43
			c10.52-18.05,29.7-29.63,50.96-30.76h140.92C509.39,217.91,502.98,236.03,490.22,249.65z"/>
	</g>
	<text transform="matrix(1.3193 0 0 1 145.0563 526.0651)" class="st0 st3 st4">Fitcus</text>
</g>
</svg>
