<?xml version="1.0" encoding="utf-8"?>
<!-- Generator: Adobe Illustrator 23.0.6, SVG Export Plug-In . SVG Version: 6.00 Build 0)  -->
<svg version="1.1" id="_x2014_ÎÓÈ_x5F_1" xmlns="http://www.w3.org/2000/svg" xmlns:xlink="http://www.w3.org/1999/xlink"
	 x="0px" y="0px" viewBox="0 0 1481.13 759.24" style="enable-background:new 0 0 1481.13 759.24;" xml:space="preserve">
<style type="text/css">
	.st0{fill:#2D426C;}
	.st1{fill:#4461A3;}
	.st2{fill:#47A0D9;}
	.st3{font-family:'Exo-ExtraBoldItalic';}
	.st4{font-size:336.4602px;}
</style>
<g>
	<g>
		<path class="st0" d="M373.82,410.36l-61.41,132.78c-13.84,29.71-43.25,47.29-74.11,47.29c-6.34,0-12.97-0.86-19.32-2.31
			c-0.14,0-0.14-0.14-0.28-0.14c-16.73-12.97-32.87-36.48-35.04-57.67c-4.17-40.94,24.37-74.39,59.26-91.26
			C283.28,419.46,330.28,419.74,373.82,410.36z"/>
		<path class="st1" d="M496.22,294.6c-8.36,34.75-27.97,65.16-55.95,86.92c-19.89,15.57-42.67,23.65-66.45,28.83
			c-43.54,9.38-90.54,9.1-130.9,28.69c-34.89,16.87-63.43,50.32-59.26,91.26c2.17,21.19,18.32,44.7,35.04,57.67
			c-4.91-1.15-9.81-2.89-14.56-5.04c-40.8-18.89-58.67-67.32-39.79-108.28l51.75-111.73c29.85-18.74,80.74-69.62,189.87-68.32
			C436.11,294.89,466.24,294.75,496.22,294.6z"/>
		<path class="st2" d="M635.19,249.19c-25.37,27.97-61.13,44.4-98.9,45.26c-13.4,0-26.66,0.15-40.07,0.15
			c-29.99,0.14-60.12,0.28-90.25,0c-109.13-1.29-160.03,49.59-189.87,68.32l70.51-152.51c0.14-0.3,0.28-0.58,0.43-0.87
			c21.05-37.06,59.39-60.83,101.92-63.14H670.8C673.54,184.03,660.72,221.23,635.19,249.19z"/>
	</g>
	<text transform="matrix(1.1435 0 0 1 443.632 578.1177)" class="st0 st3 st4">itcus</text>
</g>
</svg>
